<svg width="33" height="32" viewBox="0 0 33 32" fill="none" xmlns="http://www.w3.org/2000/svg">
<path d="M7.9489 15.468L19.5975 10.719C20.7474 10.2243 24.6469 8.64125 24.6469 8.64125C24.6469 8.64125 26.4467 7.94868 26.2967 9.63064C26.2467 10.3232 25.8467 12.7472 25.4468 15.3691L24.1969 23.1358C24.1969 23.1358 24.0969 24.2736 23.247 24.4715C22.3972 24.6694 20.9973 23.7789 20.7474 23.5811C20.5474 23.4326 16.9978 21.2065 15.698 20.1182C15.348 19.8214 14.9481 19.2277 15.748 18.5352C17.5477 16.9027 19.6975 14.8744 20.9973 13.5882C21.5972 12.9946 22.1972 11.6094 19.6975 13.2914L12.6483 17.991C12.6483 17.991 11.8484 18.4857 10.3486 18.0405C8.84879 17.5952 7.099 17.0016 7.099 17.0016C7.099 17.0016 5.89915 16.2596 7.9489 15.468V15.468Z" fill="white"/>
</svg>
