<svg width="24" height="24" viewBox="0 0 24 24" fill="none" xmlns="http://www.w3.org/2000/svg">
<mask id="mask0_704_8" style="mask-type:alpha" maskUnits="userSpaceOnUse" x="0" y="0" width="24" height="24">
<circle cx="12" cy="12" r="12" fill="#C4C4C4"/>
</mask>
<g mask="url(#mask0_704_8)">
<rect width="24" height="2" fill="white"/>
<rect y="2" width="24" height="2" fill="#FF6666"/>
<rect y="4" width="24" height="2" fill="white"/>
<rect y="6" width="24" height="2" fill="#FF6666"/>
<rect y="8" width="24" height="2" fill="white"/>
<rect y="10" width="24" height="2" fill="#FF6666"/>
<rect y="12" width="24" height="2" fill="white"/>
<rect y="14" width="24" height="2" fill="#FF6666"/>
<rect y="16" width="24" height="2" fill="white"/>
<rect y="18" width="24" height="2" fill="#FF6666"/>
<rect y="20" width="24" height="2" fill="white"/>
<rect y="22" width="24" height="2" fill="#FF6666"/>
<rect width="12" height="12" fill="#6675FF"/>
<path d="M9.5 8L9.83677 9.03647H10.9266L10.0449 9.67705L10.3817 10.7135L9.5 10.0729L8.61832 10.7135L8.95509 9.67705L8.07342 9.03647H9.16323L9.5 8Z" fill="white"/>
<path d="M9.5 4L9.83677 5.03647H10.9266L10.0449 5.67705L10.3817 6.71353L9.5 6.07295L8.61832 6.71353L8.95509 5.67705L8.07342 5.03647H9.16323L9.5 4Z" fill="white"/>
<path d="M9.5 0L9.83677 1.03647H10.9266L10.0449 1.67705L10.3817 2.71353L9.5 2.07295L8.61832 2.71353L8.95509 1.67705L8.07342 1.03647H9.16323L9.5 0Z" fill="white"/>
<path d="M5.5 8L5.83677 9.03647H6.92658L6.04491 9.67705L6.38168 10.7135L5.5 10.0729L4.61832 10.7135L4.95509 9.67705L4.07342 9.03647H5.16323L5.5 8Z" fill="white"/>
<path d="M5.5 4L5.83677 5.03647H6.92658L6.04491 5.67705L6.38168 6.71353L5.5 6.07295L4.61832 6.71353L4.95509 5.67705L4.07342 5.03647H5.16323L5.5 4Z" fill="white"/>
<path d="M5.5 0L5.83677 1.03647H6.92658L6.04491 1.67705L6.38168 2.71353L5.5 2.07295L4.61832 2.71353L4.95509 1.67705L4.07342 1.03647H5.16323L5.5 0Z" fill="white"/>
<path d="M1.5 8L1.83677 9.03647H2.92658L2.04491 9.67705L2.38168 10.7135L1.5 10.0729L0.618322 10.7135L0.955093 9.67705L0.0734153 9.03647H1.16323L1.5 8Z" fill="white"/>
<path d="M1.5 4L1.83677 5.03647H2.92658L2.04491 5.67705L2.38168 6.71353L1.5 6.07295L0.618322 6.71353L0.955093 5.67705L0.0734153 5.03647H1.16323L1.5 4Z" fill="white"/>
<path d="M1.5 0L1.83677 1.03647H2.92658L2.04491 1.67705L2.38168 2.71353L1.5 2.07295L0.618322 2.71353L0.955093 1.67705L0.0734153 1.03647H1.16323L1.5 0Z" fill="white"/>
</g>
</svg>
